<?xml version="1.0" encoding="iso-8859-1"?>
<!-- Generator: Adobe Illustrator 19.0.0, SVG Export Plug-In . SVG Version: 6.00 Build 0)  -->
<svg version="1.1" id="Capa_1" xmlns="http://www.w3.org/2000/svg" xmlns:xlink="http://www.w3.org/1999/xlink" x="0px" y="0px"
	 viewBox="0 0 512 512" style="enable-background:new 0 0 512 512;" xml:space="preserve">
<g>
	<g>
		<path d="M449.291,146.937c-31.064-31.064-70.007-51.38-112.319-59.112V73.206c20.921-2.986,41.45-8.149,61.372-15.489
			c7.618-2.807,13.621-8.447,16.905-15.883c3.291-7.455,3.414-15.716,0.346-23.264c-6.096-14.992-22.789-22.314-38.003-16.669
			c-33.225,12.33-68.543,16.978-104.974,13.809c-35.149-3.054-58.799-12.726-58.957-12.792c-15.09-6.421-32.618,0.619-39.074,15.7
			c-6.467,15.111,0.565,32.668,15.674,39.134c1.242,0.532,30.933,13.075,75.443,17.196c6.393,0.593,12.848,0.97,19.285,1.161v8.601
			c-52.197,3.131-100.835,24.937-138.126,62.227c-37.505,37.505-59.35,86.49-62.282,139.029
			c-7.833-8.499-15.097-17.626-21.692-27.358c-8.324-12.282-22.982-17.679-37.345-13.743c-14.32,3.923-24.152,15.998-25.051,30.762
			c-0.294,4.831-0.434,9.737-0.414,14.584c0.173,44.116,13.173,86.681,37.594,123.09c3.076,4.587,9.286,5.811,13.871,2.733
			c4.586-3.075,5.809-9.285,2.733-13.871c-22.22-33.128-34.048-71.867-34.205-112.032c-0.018-4.418,0.109-8.89,0.377-13.292
			c0.449-7.387,5.655-11.399,10.378-12.693c0.351-0.096,0.714-0.177,1.083-0.249l5.922,51.094c0.009,0.078,0.02,0.156,0.03,0.234
			c6.168,44.101,28.152,84.698,61.902,114.312c34.064,29.892,77.703,46.352,122.873,46.352c26.595,0,52.4-5.574,76.701-16.569
			c38.577-17.454,70.478-48.444,89.826-87.262l14.738-29.57c0.401-0.805,0.672-1.64,0.842-2.48c1.495,0.575,2.842,1.365,3.97,2.265
			c3.831,3.061,7.024,8.823,4.499,15.82c-28.879,80.024-105.465,133.79-190.576,133.79c-42.823,0.001-83.723-13.135-118.279-37.985
			c-4.486-3.227-10.73-2.201-13.954,2.278c-3.223,4.483-2.202,10.73,2.279,13.954c37.979,27.311,82.916,41.748,129.953,41.747
			c12.784,0,25.417-1.08,37.802-3.192c12.349,2.192,25.006,3.312,37.639,3.312c57.121,0,110.823-22.244,151.214-62.634
			c40.39-40.391,62.634-94.093,62.634-151.214C511.925,241.03,489.681,187.328,449.291,146.937z M355.709,113.042
			c9.211,2.874,18.128,6.421,26.697,10.578l-13.969,13.556c-15.178,14.729-28.01,31.313-38.356,49.496h-17.409
			c-10.446,0-20.798,1.009-30.967,3.008c5.067-10.795,11.274-21.009,18.549-30.454h36.052c5.52,0,9.997-4.477,9.997-9.997
			s-4.477-9.997-9.997-9.997h-17.832C329.444,129.006,341.925,120.171,355.709,113.042z M295.77,294.863h-13.949
			c-5.403,0-10.714,0.715-15.828,2.108v-31.376c7.103-6.116,16.054-9.462,25.523-9.462h13.119
			c-2.378,12.786-3.626,25.794-3.729,38.956C299.204,294.945,297.493,294.863,295.77,294.863z M300.884,315.203v41.575
			c-11.458,2.237-23.118,3.614-34.89,4.114V318.11c4.967-2.138,10.326-3.254,15.828-3.254h13.949
			C297.492,314.856,299.196,314.987,300.884,315.203z M291.517,236.14c-8.568,0-16.853,1.822-24.43,5.259
			c1.127-9.929,3.13-19.633,5.947-29.025c12.867-3.787,26.162-5.708,39.638-5.708H320c-0.516,1.164-1.036,2.326-1.534,3.503
			c-3.601,8.513-6.65,17.179-9.15,25.971H291.517z M267.547,55.039c-41.412-3.834-68.292-15.184-69.418-15.667
			c-4.976-2.129-7.291-7.911-5.161-12.886c1.587-3.708,5.205-5.94,9.036-5.94c1.3,0,2.623,0.257,3.9,0.801
			c1.071,0.446,26.673,10.954,64.982,14.284c39.402,3.425,77.642-1.615,113.661-14.984c5.022-1.861,10.524,0.533,12.525,5.455
			c1.01,2.483,0.97,5.203-0.114,7.657c-1.076,2.436-3.038,4.282-5.526,5.198c-31.176,11.486-63.944,17.31-97.393,17.31
			C285.243,56.266,276.331,55.853,267.547,55.039z M316.977,75.382v9.755c-3.978-0.346-7.976-0.586-11.996-0.713v-8.376
			C308.991,75.905,312.99,75.682,316.977,75.382z M285.36,104.724c4.205-0.273,8.443-0.428,12.716-0.428
			c10.034,0,19.893,0.767,29.52,2.244c-13.598,9.22-25.893,20.196-36.594,32.64c-10.536-0.362-21.069-2.855-30.624-7.278
			c-1.139-0.527-2.291-1.024-3.45-1.507C265.531,121.043,275.034,112.439,285.36,104.724z M276.913,157.779
			c-1.108,1.673-2.195,3.362-3.25,5.074c-6.59,10.69-12.033,21.967-16.31,33.645l-6.216,2.236
			c-12.595,4.534-25.666,7.225-38.967,8.038c7.076-21.576,17.627-41.897,31.229-60.092c2.926,0.958,5.796,2.077,8.581,3.366
			C259.875,153.7,268.304,156.299,276.913,157.779z M238.679,311.817c-6.787,4.765-14.758,7.284-23.052,7.284h-13.827v-29.084
			h15.085c10.373,0,20.33-2.666,29.114-7.647v24.307L238.679,311.817z M246,330.855v30.02c-15.03-0.643-29.82-2.726-44.199-6.16
			v-15.619h13.827C226.395,339.096,236.798,336.258,246,330.855z M244.596,258.545c-7.401,7.402-17.242,11.477-27.71,11.477h-15.064
			c0.097-14.588,1.741-28.999,4.821-43.02c14.906-0.286,29.603-2.633,43.825-6.987c-2.7,12.126-4.185,24.538-4.411,37.067
			L244.596,258.545z M247.917,110.89c-4.244,4.293-8.317,8.734-12.193,13.331c-5.63-0.985-11.338-1.496-17.03-1.496h-3.056
			C225.937,117.865,236.729,113.889,247.917,110.89z M179.063,157.907l6.898-15.188h32.734c0.982,0,1.964,0.026,2.947,0.063
			c-13.316,19.523-23.566,41.027-30.327,63.709c-9.633-0.842-19.135-2.669-28.359-5.449
			C167.293,186.4,172.66,172.005,179.063,157.907z M157.858,220.379c9.309,2.761,18.861,4.687,28.543,5.726
			c-2.859,14.027-4.407,28.392-4.559,42.922c-6.935-1.584-13.329-5.033-18.542-10.106c-3.343-3.253-7.012-6.058-10.924-8.401
			C153.735,240.379,155.563,230.327,157.858,220.379z M181.807,289.361v59.622c-11.133-3.739-21.948-8.305-32.361-13.659v-40.582
			c0-6.97,0.221-13.907,0.648-20.808C158.949,282.269,169.952,287.594,181.807,289.361z M152.067,170.776
			c-2.895,7.642-5.514,15.355-7.857,23.137c-2.416-1.125-4.796-2.334-7.15-3.597C141.652,183.482,146.667,176.957,152.067,170.776z
			 M126.773,207.489c3.979,2.165,8.044,4.149,12.177,5.963c-2.342,9.827-4.261,19.749-5.737,29.757
			c-3.653-0.697-7.394-1.059-11.188-1.059h-9.546C116.135,230.059,120.942,218.464,126.773,207.489z M104.22,298.151
			c0-12.302,1.166-24.334,3.367-36.007h14.438c3.009,0,5.967,0.348,8.834,1.007c-0.933,10.452-1.407,20.985-1.407,31.59v29.031
			c-8.825-5.705-17.272-12.024-25.288-18.908c0.086-0.571,0.134-1.154,0.119-1.751C104.242,301.464,104.22,299.809,104.22,298.151z
			 M371.267,363.141c-17.303,34.714-45.775,62.402-80.173,77.964c-21.693,9.815-44.726,14.792-68.458,14.792
			c-82.572,0.001-153.468-61.609-164.958-143.325l-3.723-32.115c21.844,28.923,49.288,52.44,80.267,69.445
			c0.32,0.197,0.651,0.376,0.993,0.537c16.782,9.115,34.588,16.326,53.091,21.458c0.557,0.208,1.136,0.37,1.734,0.477
			c21.248,5.731,43.397,8.731,65.956,8.731c42.873,0,84.676-10.765,121.892-31.249L371.267,363.141z M320.879,323.522l3.643,2.462
			c9.977,6.743,21.616,10.307,33.657,10.307h2.578c-12.807,6.452-26.153,11.687-39.878,15.656V323.522z M389.438,316.296h-31.259
			v0.001c-8.036,0-15.804-2.378-22.462-6.878l-6.29-4.252c-2.732-1.846-5.593-3.445-8.549-4.806v-3.498
			c0-13.744,1.433-27.392,4.196-40.73h1.544c10.468,0,20.309,4.076,27.711,11.477l2.318,2.317
			c9.013,9.014,20.423,14.756,32.792,16.645V316.296z M389.439,266.215c-7.006-1.65-13.437-5.206-18.653-10.424l-2.319-2.318
			c-10.317-10.317-23.773-16.342-38.214-17.212c2.951-9.37,6.57-18.522,10.832-27.369l29.432,20.164
			c11.849,8.117,18.923,21.538,18.923,35.9V266.215z M316.658,491.111c12.253-5.726,24.037-12.597,35.222-20.59
			c9.106-6.508,17.645-13.626,25.58-21.291l14.309-6.167c11.169-4.812,23.666-4.519,34.426,0.438
			C396.376,469.816,358.432,487.119,316.658,491.111z M452.936,414.63c-3.714,4.923-7.654,9.666-11.808,14.21
			c-11.519-7.085-24.922-10.164-38.173-8.974c8.8-12.146,16.367-25.188,22.581-38.98c9.424-0.612,18.656-2.614,27.4-5.924V414.63z
			 M452.936,353.147c-6.158,3.093-12.717,5.326-19.497,6.624c2.467-12.392-2.045-24.965-12.246-33.115
			c-3.609-2.883-7.599-4.948-11.76-6.192v-33.201h42.845c0.43,4.774,0.659,9.583,0.659,14.423V353.147z M458.335,230.899
			c-2.185-5.069-8.068-7.411-13.137-5.225c-5.07,2.185-7.41,8.065-5.225,13.137c3.985,9.249,7.047,18.756,9.2,28.46h-39.742v-2.314
			c0-20.96-10.324-40.547-27.616-52.394l-31.128-21.325c6.089-9.99,13.05-19.469,20.819-28.303
			c9.39,5.247,18.242,11.421,26.368,18.44c1.89,1.633,4.216,2.432,6.53,2.432c2.805,0,5.593-1.174,7.57-3.462
			c3.609-4.179,3.147-10.492-1.03-14.1c-7.814-6.75-16.225-12.8-25.094-18.105l14.826-14.388
			c46.448,29.089,79.746,77.298,88.785,133.52h-19.864C467.164,254.842,463.412,242.684,458.335,230.899z M472.927,381.815v-17.311
			h0.001c2.902-1.988,5.714-4.124,8.398-6.443l1.553-1.343C480.135,365.361,476.806,373.743,472.927,381.815z M472.928,338.895
			v-37.207c0-4.836-0.199-9.645-0.581-14.423h19.272c0.201,3.605,0.312,7.233,0.312,10.887c0,8.751-0.594,17.366-1.722,25.813
			L472.928,338.895z"/>
	</g>
</g>
<g>
	<g>
		<path d="M78.866,432.168l-0.107-0.108l-0.034-0.035c-3.865-3.945-10.194-4.008-14.138-0.145
			c-3.943,3.864-4.009,10.192-0.146,14.137l0.141,0.143c1.958,1.998,4.549,3,7.142,3c2.524,0,5.05-0.95,6.996-2.855
			C82.663,442.44,82.729,436.112,78.866,432.168z"/>
	</g>
</g>
<g>
	<g>
		<path d="M440.278,198.63c-3.131-4.532-9.343-5.674-13.886-2.552c-4.551,3.128-5.702,9.351-2.574,13.901l0.235,0.335
			c1.955,2.702,5.009,4.139,8.107,4.139c2.03,0,4.081-0.617,5.852-1.897C442.474,209.327,443.484,203.101,440.278,198.63z"/>
	</g>
</g>
<g>
	<g>
		<path d="M205.611,389.439c-5.273-1.605-10.868,1.365-12.478,6.646l-1.361,4.463c-1.609,5.28,1.366,10.868,6.646,12.478
			c0.972,0.296,1.953,0.438,2.92,0.438c4.282,0,8.244-2.774,9.559-7.084l1.361-4.463
			C213.867,396.637,210.891,391.05,205.611,389.439z"/>
	</g>
</g>
<g>
	<g>
		<path d="M242.769,394.235c-5.52,0-9.997,4.477-9.997,9.997v6.998c0,5.52,4.477,9.997,9.997,9.997s9.997-4.477,9.997-9.997v-6.998
			C252.766,398.71,248.289,394.235,242.769,394.235z"/>
	</g>
</g>
<g>
	<g>
		<path d="M295.846,400.552l-3.573-5.321c-3.078-4.586-9.289-5.805-13.872-2.727c-4.584,3.077-5.805,9.288-2.727,13.872l3.573,5.321
			c1.929,2.874,5.089,4.426,8.308,4.426c1.916,0,3.853-0.55,5.563-1.698C297.703,411.346,298.924,405.135,295.846,400.552z"/>
	</g>
</g>
<g>
	<g>
		<path d="M167.623,376.24c-4.42-3.313-10.685-2.416-13.996,1.999l-3.999,5.332c-3.312,4.418-2.417,10.684,1.999,13.996
			c1.799,1.35,3.903,2,5.99,2c3.039,0,6.042-1.382,8.005-4l3.999-5.332C172.935,385.818,172.04,379.552,167.623,376.24z"/>
	</g>
</g>
<g>
	<g>
		<path d="M129.924,355.123c-4.698-2.902-10.857-1.445-13.759,3.252l-3.081,4.988c-2.901,4.698-1.445,10.858,3.252,13.759
			c1.637,1.012,3.451,1.493,5.243,1.493c3.352,0,6.625-1.684,8.515-4.745l3.081-4.988
			C136.077,364.183,134.621,358.023,129.924,355.123z"/>
	</g>
</g>
<g>
</g>
<g>
</g>
<g>
</g>
<g>
</g>
<g>
</g>
<g>
</g>
<g>
</g>
<g>
</g>
<g>
</g>
<g>
</g>
<g>
</g>
<g>
</g>
<g>
</g>
<g>
</g>
<g>
</g>
</svg>
